<svg xmlns="http://www.w3.org/2000/svg" viewBox="0 0 64 64" role="img" aria-label="5J/DJ)">
  <defs>
    <linearGradient id="rxg" x1="0%" y1="0%" x2="100%" y2="100%">
      <stop offset="0%" stop-color="#0d9488"/>
      <stop offset="55%" stop-color="#059669"/>
      <stop offset="100%" stop-color="#047857"/>
    </linearGradient>
    <filter id="s" x="-20%" y="-20%" width="140%" height="140%">
      <feDropShadow dx="0" dy="2" stdDeviation="2" flood-color="#000" flood-opacity="0.22"/>
    </filter>
  </defs>
  <circle cx="32" cy="32" r="30" fill="url(#rxg)" filter="url(#s)"/>
  <path fill="#ecfdf5" d="M32 10c-1.1 0-2 .9-2 2v10H20c-1.1 0-2 .9-2 2s.9 2 2 2h10v10c0 1.1.9 2 2 2s2-.9 2-2V26h10c1.1 0 2-.9 2-2s-.9-2-2-2H34V12c0-1.1-.9-2-2-2z"/>
  <ellipse cx="32" cy="48" rx="14" ry="5" fill="#a7f3d0" opacity="0.45"/>
</svg>
